<svg xmlns="http://www.w3.org/2000/svg" viewBox="0 0 760 300" width="760" height="300" role="img" aria-label="법무 상담 어시스턴트 전체 흐름">
<style>
  .bg  { fill: #ffffff; }
  .pan { fill: #f4f5f8; stroke: #dde1ea; }
  .box { fill: #ffffff; stroke: #dde1ea; }
  .hot { stroke: #7a5c10; }
  .ink { fill: #151a24; }
  .sub { fill: #343a48; }
  .mut { fill: #6b7385; }
  .acc { fill: #7a5c10; }
  .ln  { stroke: #6b7385; }
  .ah  { fill: #6b7385; }
  .dl  { stroke: #a3abbd; }
  .ahd { fill: #a3abbd; }
  
    .bg  { fill: #10131a; }
    .pan { fill: #151922; stroke: #2a3040; }
    .box { fill: #10131a; stroke: #2a3040; }
    .hot { stroke: #e3c77a; }
    .ink { fill: #e9e8e4; }
    .sub { fill: #c5c5c0; }
    .mut { fill: #8e919b; }
    .acc { fill: #e3c77a; }
    .ln  { stroke: #8e919b; }
    .ah  { fill: #8e919b; }
    .dl  { stroke: #3f4860; }
    .ahd { fill: #59637c; }
  
  text { font-family: 'Pretendard','Apple SD Gothic Neo','Malgun Gothic',system-ui,sans-serif; }
  .t { font-size: 14.5px; font-weight: 700; }
  .s { font-size: 12px; }
  .k { font-size: 11.5px; font-weight: 700; letter-spacing: .06em; }
  rect { stroke-width: 1.2; }
  .hot { stroke-width: 1.7; }
  .ln, .dl { fill: none; stroke-width: 1.4; }
  .dl { stroke-dasharray: 4 4; }
</style>
<defs><marker id="a" markerUnits="userSpaceOnUse" markerWidth="11" markerHeight="9" refX="9" refY="4.5" orient="auto"><path class="ah" d="M0.5 0.6 L9 4.5 L0.5 8.4 z"/></marker><marker id="d" markerUnits="userSpaceOnUse" markerWidth="11" markerHeight="9" refX="9" refY="4.5" orient="auto"><path class="ahd" d="M0.5 0.6 L9 4.5 L0.5 8.4 z"/></marker></defs>
<rect class="bg" x="0" y="0" width="760" height="300"/>
<text class="k acc" x="16" y="26">상담 신청 흐름</text>
<rect class="box" x="16" y="36" width="158" height="58" rx="9"/>
<text class="t ink" x="30" y="60">구성원 문의</text>
<text class="s mut" x="30" y="79">법무 시스템에서 접수</text>
<rect class="box" x="206" y="36" width="158" height="58" rx="9"/>
<text class="t ink" x="220" y="60">법무 타입 분류</text>
<text class="s mut" x="220" y="79">멀티 라벨 · Recall 중심</text>
<rect class="box hot" x="396" y="36" width="158" height="58" rx="9"/>
<text class="t ink" x="410" y="60">정보 추출 · 질문</text>
<text class="s mut" x="410" y="79">채팅으로 누락분 확인</text>
<rect class="box" x="586" y="36" width="158" height="58" rx="9"/>
<text class="t ink" x="600" y="60">요청 정리</text>
<text class="s mut" x="600" y="79">핵심 정보 취합</text>
<path class="ln" d="M174 65 L202 65" marker-end="url(#a)"/>
<path class="ln" d="M364 65 L392 65" marker-end="url(#a)"/>
<path class="ln" d="M554 65 L582 65" marker-end="url(#a)"/>
<path class="dl" d="M475 94 V114 H95 V98" marker-end="url(#d)"/>
<text class="k mut" x="240" y="110">누락된 정보는 다시 질문</text>
<path class="ln" d="M665 94 V132 H390 V152" marker-end="url(#a)"/>
<rect class="box" x="290" y="160" width="200" height="50" rx="9"/>
<text class="t ink" x="304" y="184">법무팀 검토</text>
<text class="s mut" x="304" y="203">취합된 정보로 상담 검토</text>
<rect class="pan" x="16" y="232" width="728" height="50" rx="9"/>
<text class="k acc" x="30" y="253">구성</text>
<text class="s sub" x="30" y="272">ADK SequentialAgent · AG-UI + Flutter · Cloud Run · Jenkins CI/CD</text>
</svg>