<svg xmlns="http://www.w3.org/2000/svg" viewBox="0 0 760 262" width="760" height="262" role="img" aria-label="C레벨용 조직 에이전트 구성">
<style>
  .bg  { fill: #ffffff; }
  .pan { fill: #f4f8f7; stroke: #dce5e2; }
  .box { fill: #ffffff; stroke: #dce5e2; }
  .hot { stroke: #0b6b5c; }
  .ink { fill: #16211f; }
  .sub { fill: #33403e; }
  .mut { fill: #6b7c79; }
  .acc { fill: #0b6b5c; }
  .ln  { stroke: #6b7c79; }
  .ah  { fill: #6b7c79; }
  .dl  { stroke: #9db0ab; }
  .ahd { fill: #9db0ab; }
  @media (prefers-color-scheme: dark) {
    .bg  { fill: #0d1413; }
    .pan { fill: #101817; stroke: #26332f; }
    .box { fill: #0d1413; stroke: #26332f; }
    .hot { stroke: #6fdcc6; }
    .ink { fill: #e6edea; }
    .sub { fill: #bcc9c6; }
    .mut { fill: #849692; }
    .acc { fill: #6fdcc6; }
    .ln  { stroke: #849692; }
    .ah  { fill: #849692; }
    .dl  { stroke: #46564f; }
    .ahd { fill: #5d716a; }
  }
  text { font-family: 'Pretendard','Apple SD Gothic Neo','Malgun Gothic',system-ui,sans-serif; }
  .t { font-size: 14.5px; font-weight: 700; }
  .s { font-size: 12px; }
  .k { font-size: 11.5px; font-weight: 700; letter-spacing: .06em; }
  rect { stroke-width: 1.2; }
  .hot { stroke-width: 1.7; }
  .ln, .dl { fill: none; stroke-width: 1.4; }
  .dl { stroke-dasharray: 4 4; }
</style>
<defs><marker id="a" markerUnits="userSpaceOnUse" markerWidth="11" markerHeight="9" refX="9" refY="4.5" orient="auto"><path class="ah" d="M0.5 0.6 L9 4.5 L0.5 8.4 z"/></marker><marker id="d" markerUnits="userSpaceOnUse" markerWidth="11" markerHeight="9" refX="9" refY="4.5" orient="auto"><path class="ahd" d="M0.5 0.6 L9 4.5 L0.5 8.4 z"/></marker></defs>
<rect class="bg" x="0" y="0" width="760" height="262"/>
<text class="k acc" x="16" y="26">질의응답</text>
<rect class="box" x="16" y="36" width="200" height="58" rx="9"/>
<text class="t ink" x="30" y="60">C레벨 질의</text>
<text class="s mut" x="30" y="79">조직 현황 · 지표 문의</text>
<path class="ln" d="M216 65 L244 65" marker-end="url(#a)"/>
<rect class="box hot" x="248" y="36" width="264" height="58" rx="9"/>
<text class="t ink" x="262" y="60">조직 에이전트</text>
<text class="s mut" x="262" y="79">조직 전체 데이터를 가로질러 답변</text>
<path class="ln" d="M512 65 L540 65" marker-end="url(#a)"/>
<rect class="box" x="544" y="36" width="200" height="58" rx="9"/>
<text class="t ink" x="558" y="60">답변</text>
<text class="s mut" x="558" y="79">근거 데이터와 함께</text>
<text class="k acc" x="16" y="124">참조하는 것</text>
<rect class="box" x="16" y="136" width="356" height="58" rx="9"/>
<text class="t ink" x="30" y="160">지식 에이전트</text>
<text class="s mut" x="30" y="179">저장소 데이터를 그래프화 · GraphRAG</text>
<rect class="box" x="388" y="136" width="356" height="58" rx="9"/>
<text class="t ink" x="402" y="160">사내 API</text>
<text class="s mut" x="402" y="179">각 부서 시스템 조회</text>
<path class="ln" d="M194 136 V114 H380 V98" marker-end="url(#a)"/>
<path class="ln" d="M566 136 V114 H380 V98" marker-end="url(#a)"/>
<rect class="pan" x="16" y="212" width="728" height="44" rx="9"/>
<text class="k acc" x="30" y="233">운영</text>
<text class="s sub" x="30" y="252">모든 데이터에 접근 가능한 C레벨 대상으로 파일럿 운영 중</text>
</svg>